<?xml version="1.0" encoding="UTF-8"?>
<svg id="Layer_1" xmlns="http://www.w3.org/2000/svg" xmlns:xlink="http://www.w3.org/1999/xlink" version="1.1" viewBox="0 0 848 103">
  <!-- Generator: Adobe Illustrator 29.2.1, SVG Export Plug-In . SVG Version: 2.1.0 Build 116)  -->
  <defs>
    <style>
      .st0 {
        fill: none;
      }

      .st1 {
        fill: #030f4f;
      }

      .st2 {
        clip-path: url(#clippath);
      }
    </style>
    <clipPath id="clippath">
      <rect class="st0" width="847.9" height="103"/>
    </clipPath>
  </defs>
  <g class="st2">
    <g>
      <path class="st1" d="M445,39h-5.2v18.6c0,.3-.3.6-.6.6h-4.2c-.3,0-.6-.3-.6-.6v-18.6h-5.2c-.3,0-.6-.3-.6-.6v-3.3c0-.3.3-.6.6-.6h15.8c.3,0,.7.3.7.6v3.3c0,.3-.3.6-.7.6h0Z"/>
      <path class="st1" d="M463.5,58.2h-3.9c-.3,0-.6-.3-.6-.7v-10.6c0-2.2-.4-3-2.4-3s-1.9.5-3,1v12.6c0,.3-.3.7-.6.7h-3.9c-.3,0-.7-.3-.7-.7v-23.2c0-.3.3-.6.6-.6h3.9c.3,0,.6.3.6.6v6.7c1.6-1,3-1.4,4.9-1.4,4.6,0,5.6,3.2,5.6,7.2v10.6c0,.3-.3.7-.7.7h0Z"/>
      <path class="st1" d="M482.8,50.6h-10.2c0,1.9.8,3.6,3.3,3.6s4.8-.2,6.1-.3h.1c.3,0,.6.2.6.5v2.4c0,.5-.1.7-.7.9-2,.5-3.8.8-6.6.8s-8-2-8-8.2v-2.2c0-5.1,3-8.4,8.1-8.4s7.9,3.6,7.9,8.4v1.8c0,.5-.3.8-.7.8h0ZM478.4,47.3c0-2.4-1.1-3.5-2.9-3.5s-2.9,1.2-2.9,3.5h0c0,.1,5.8.1,5.8.1h0c0-.1,0-.1,0-.1Z"/>
      <path class="st1" d="M504.3,58.5c-5.3,0-9.4-2.8-9.4-10.2v-3.8c0-7.4,4.2-10.2,9.4-10.2s9.4,2.8,9.4,10.2v3.8c0,7.4-4.2,10.2-9.4,10.2ZM508.3,44.4c0-3.8-1.3-5.5-4-5.5s-3.9,1.6-3.9,5.5v3.8c0,3.8,1.2,5.5,3.9,5.5s4-1.6,4-5.5v-3.8Z"/>
      <path class="st1" d="M525.2,58.5c-2.5,0-5-.4-6.8-.8-.9-.2-1-.4-1-.9v-22.4c0-.3.3-.6.7-.6h3.9c.3,0,.6.3.6.6v5.5c.9-.1,2-.2,2.6-.2,5.4,0,8,3.2,8,8.2v2.5c0,5.2-2.8,8.2-8,8.2h0ZM528,47.8c0-2.2-.6-3.9-2.8-3.9s-1.8,0-2.6.2v10c.6,0,1.6.2,2.6.2,2.3,0,2.8-1.7,2.8-3.9v-2.5h0Z"/>
      <path class="st1" d="M542.4,58.5c-1.8,0-4.2-.3-5.8-.7-.4,0-.6-.3-.6-.7v-2.6c0-.3.2-.6.6-.6h.1c1.7.2,4.4.5,5.4.5,1.5,0,1.9-.4,1.9-1.3s-.3-.8-1.2-1.3l-4.1-2.4c-1.8-1-2.8-2.6-2.8-4.7,0-3.2,2.1-4.9,6.6-4.9s4.1.3,5.7.7c.4,0,.6.3.6.7v2.6c0,.4-.2.6-.5.6h-.1c-.9-.1-3.7-.4-5.3-.4s-1.7.2-1.7.9.3.7,1,1.1l4,2.3c2.6,1.5,3.2,3.2,3.2,4.9,0,3-2.2,5.4-6.8,5.4Z"/>
      <path class="st1" d="M567.3,50.6h-10.2c0,1.9.8,3.6,3.3,3.6s4.8-.2,6.1-.3h0c.3,0,.6.2.6.5v2.4c0,.5-.1.7-.7.9-2,.5-3.8.8-6.6.8s-8-2-8-8.2v-2.2c0-5.1,3-8.4,8.1-8.4s7.9,3.6,7.9,8.4v1.8c0,.5-.3.8-.7.8ZM562.9,47.3c0-2.4-1.1-3.5-2.9-3.5s-2.9,1.2-2.9,3.5h0c0,.1,5.8.1,5.8.1h0c0-.1,0-.1,0-.1Z"/>
      <path class="st1" d="M580.9,43.9h-.3c-1.6,0-2.9.5-4.1,1.1v12.5c0,.3-.3.7-.6.7h-3.9c-.3,0-.7-.3-.7-.7v-17c0-.3.3-.6.6-.6h3.8c.3,0,.6.3.6.6v.6c1.2-1,2.8-1.5,4.3-1.5s.6.3.6.6v3c0,.3-.2.6-.5.6Z"/>
      <path class="st1" d="M600,40.6l-4,14.5c-.8,2.8-2.8,3.3-4.6,3.3s-3.8-.5-4.6-3.3l-4-14.5s0-.1,0-.2c0-.3.2-.5.5-.5h4.2c.3,0,.6.3.7.7l2.8,12.5c.1.5.3.7.5.7s.4-.2.5-.7l2.8-12.5c0-.4.3-.7.7-.7h4.2c.3,0,.5.2.5.5s0,.1,0,.2h0Z"/>
      <path class="st1" d="M615.4,58.2h-3.6c-.3,0-.6-.3-.6-.6v-.5c-1.2.9-2.5,1.4-4.4,1.4-2.8,0-5.5-1.3-5.5-5.5v-.3c0-3.7,2.4-5.4,7.9-5.4h1.7v-1.2c0-1.8-.9-2.2-2.4-2.2s-4.3.1-5.3.2h-.2c-.3,0-.6-.2-.6-.6v-2.6c0-.3.2-.6.6-.7,1.2-.3,3.4-.7,5.5-.7,4.6,0,7.5,1.8,7.5,6.5v11.4c0,.3-.3.6-.6.6h0ZM611,50.3h-1.8c-2.2,0-2.8.8-2.8,2.3v.3c0,1.3.7,1.6,2,1.6s1.8-.3,2.6-.7v-3.5h0Z"/>
      <path class="st1" d="M629.1,58.2c-1,.2-1.6.3-2.5.3-3.5,0-5.4-.9-5.4-5.5v-9.3l-2.6-.4c-.3,0-.7-.3-.7-.7v-2.1c0-.3.3-.7.7-.7h2.6v-2.6c0-.3.3-.6.6-.6l3.9-.7h.1c.3,0,.6.2.6.5v3.4h2.6c.3,0,.6.3.6.6v2.6c0,.3-.3.6-.6.6h-2.6v9.3c0,1.3,0,1.5,1,1.5h1.6c.4,0,.7.2.7.5v2.5c0,.3-.2.6-.6.6h0Z"/>
      <path class="st1" d="M639.8,58.5c-5.2,0-8-3.2-8-8.3v-2.2c0-5.1,2.8-8.3,8-8.3s8,3.2,8,8.3v2.2c0,5.1-2.8,8.3-8,8.3ZM642.6,47.9c0-2.6-1-3.9-2.8-3.9s-2.9,1.3-2.9,3.9v2.2c0,2.6,1,3.9,2.9,3.9s2.8-1.3,2.8-3.9v-2.2Z"/>
      <path class="st1" d="M660.6,43.9h-.3c-1.6,0-2.9.5-4.1,1.1v12.5c0,.3-.3.7-.6.7h-3.9c-.3,0-.7-.3-.7-.7v-17c0-.3.3-.6.6-.6h3.8c.3,0,.6.3.6.6v.6c1.2-1,2.8-1.5,4.3-1.5s.6.3.6.6v3c0,.3-.2.6-.5.6Z"/>
      <path class="st1" d="M679.9,40.6l-5.4,18.8c-1,3.5-2.3,5.2-7,5.2s-3.1-.3-3.9-.5c-.3-.1-.7-.2-.7-.6v-2.6c0-.3.3-.6.6-.6h0c1,0,2.9.3,4,.3s1.7-.4,2.1-1.7l.3-1h-.5c-1.2,0-2.2-.2-3-3l-4.2-14.4c0-.1,0-.2,0-.2,0-.3.2-.5.6-.5h4.3c.3,0,.5.3.6.6l2.9,12c.1.5.2.6.4.6h.3l3-12.6c0-.3.3-.6.7-.6h4.3c.3,0,.6.3.6.6s0,0,0,.2h0Z"/>
      <path class="st1" d="M700.9,37.3h-1.6c-1,0-1,.2-1,1.5v1h2.6c.3,0,.6.3.6.6v2.6c0,.3-.3.6-.6.6h-2.6v13.8c0,.3-.3.6-.6.6h-3.9c-.3,0-.6-.3-.6-.6v-13.8l-2.6-.4c-.3,0-.7-.3-.7-.7v-2.1c0-.3.3-.7.7-.7h2.6v-1c0-4.5,1.8-5.5,5.4-5.5s1.6,0,2.5.3c.4,0,.6.3.6.6v2.5c0,.3-.3.5-.7.5h0Z"/>
      <path class="st1" d="M711.2,58.5c-5.2,0-8-3.2-8-8.3v-2.2c0-5.1,2.8-8.3,8-8.3s8,3.2,8,8.3v2.2c0,5.1-2.8,8.3-8,8.3ZM714,47.9c0-2.6-1-3.9-2.8-3.9s-2.9,1.3-2.9,3.9v2.2c0,2.6,1,3.9,2.9,3.9s2.8-1.3,2.8-3.9v-2.2Z"/>
      <path class="st1" d="M732.1,43.9h-.3c-1.6,0-2.9.5-4.1,1.1v12.5c0,.3-.3.7-.6.7h-3.9c-.3,0-.7-.3-.7-.7v-17c0-.3.3-.6.6-.6h3.8c.3,0,.6.3.6.6v.6c1.2-1,2.8-1.5,4.3-1.5s.6.3.6.6v3c0,.3-.2.6-.5.6h0Z"/>
      <path class="st1" d="M761.9,58.2h-4.2c-.3,0-.6-.3-.6-.6v-9.2h-7.9v9.2c0,.3-.3.6-.6.6h-4.2c-.3,0-.6-.3-.6-.6v-22.5c0-.3.3-.6.6-.6h4.2c.3,0,.6.3.6.6v8.5h7.9v-8.5c0-.3.3-.6.6-.6h4.2c.3,0,.6.3.6.6v22.5c0,.3-.3.6-.6.6Z"/>
      <path class="st1" d="M781.8,58.2h-3.6c-.3,0-.6-.3-.6-.6v-.8c-1.8,1.2-3.2,1.7-5.2,1.7-4.6,0-5.6-3.2-5.6-7.2v-10.6c0-.3.3-.7.7-.7h3.9c.3,0,.6.3.6.7v10.6c0,2.2.4,3,2.4,3s1.9-.5,3-1v-12.6c0-.3.3-.7.6-.7h3.9c.3,0,.7.3.7.7v17c0,.3-.3.6-.6.6h0Z"/>
      <path class="st1" d="M809.7,58.2h-3.9c-.3,0-.6-.3-.6-.7v-10.9c0-2-.5-2.6-2-2.6s-1.5.1-2.5.6c0,.6,0,1.4,0,2.1v10.9c0,.3-.3.7-.6.7h-3.9c-.3,0-.7-.3-.7-.7v-10.9c0-2-.4-2.6-1.8-2.6s-1.4.3-2.4.8v12.7c0,.3-.3.7-.6.7h-3.9c-.3,0-.7-.3-.7-.7v-17c0-.3.3-.6.6-.6h3.6c.3,0,.6.3.6.6v.7c1.3-.9,2.9-1.6,4.7-1.6s2.9.5,3.8,1.6c1.8-1,3.1-1.6,5.2-1.6,4.2,0,5.5,2.8,5.5,7v10.9c0,.3-.3.7-.7.7h0Z"/>
      <path class="st1" d="M827.7,58.2h-3.6c-.3,0-.6-.3-.6-.6v-.5c-1.2.9-2.5,1.4-4.4,1.4-2.8,0-5.5-1.3-5.5-5.5v-.3c0-3.7,2.4-5.4,7.9-5.4h1.7v-1.2c0-1.8-.9-2.2-2.4-2.2s-4.3.1-5.3.2h-.2c-.3,0-.6-.2-.6-.6v-2.6c0-.3.2-.6.6-.7,1.2-.3,3.4-.7,5.5-.7,4.6,0,7.5,1.8,7.5,6.5v11.4c0,.3-.3.6-.6.6h0ZM823.2,50.3h-1.8c-2.2,0-2.8.8-2.8,2.3v.3c0,1.3.7,1.6,2,1.6s1.8-.3,2.6-.7v-3.5h0Z"/>
      <path class="st1" d="M847.2,58.2h-3.9c-.3,0-.6-.3-.6-.7v-10.6c0-2.2-.4-3-2.4-3s-1.9.5-3,1v12.6c0,.3-.3.7-.6.7h-3.9c-.3,0-.7-.3-.7-.7v-17c0-.3.3-.6.6-.6h3.6c.3,0,.6.3.6.6v.8c1.8-1.2,3.2-1.7,5.2-1.7,4.6,0,5.6,3.2,5.6,7.2v10.6c0,.3-.3.7-.7.7h0Z"/>
      <path class="st1" d="M443.7,96.2c-.7.2-2.5.5-4.8.5-4.8,0-9.4-2.6-9.4-10.1v-4c0-7.6,4.6-10.1,9.4-10.1s4.1.3,4.8.5c.5.1.7.3.7.7v3.1c0,.4-.2.6-.6.6h0c-1.2-.1-3-.3-4.7-.3s-4,1.2-4,5.4v4c0,4.3,1.8,5.4,4,5.4s3.5-.2,4.7-.3h0c.4,0,.6.3.6.6v3.1c0,.5-.3.6-.7.7Z"/>
      <path class="st1" d="M462.4,89h-10.2c0,1.9.8,3.6,3.3,3.6s4.8-.2,6.1-.3h0c.3,0,.6.2.6.5v2.4c0,.5-.1.7-.7.9-2,.5-3.8.8-6.6.8s-8-2-8-8.2v-2.2c0-5.1,3-8.4,8.1-8.4s7.9,3.6,7.9,8.4v1.8c0,.5-.3.8-.7.8h0ZM458,85.6c0-2.4-1.1-3.5-2.9-3.5s-2.9,1.2-2.9,3.5h0c0,.1,5.8.1,5.8.1h0c0-.1,0-.1,0-.1Z"/>
      <path class="st1" d="M481.5,96.5h-3.9c-.3,0-.6-.3-.6-.7v-10.6c0-2.2-.4-3-2.4-3s-1.9.5-3,1v12.6c0,.3-.3.7-.6.7h-3.9c-.3,0-.7-.3-.7-.7v-17c0-.3.3-.6.6-.6h3.6c.3,0,.6.3.6.6v.8c1.8-1.2,3.2-1.7,5.2-1.7,4.6,0,5.6,3.2,5.6,7.2v10.6c0,.3-.3.7-.7.7h0Z"/>
      <path class="st1" d="M495.5,96.5c-1,.2-1.6.3-2.5.3-3.5,0-5.4-.9-5.4-5.5v-9.3l-2.6-.4c-.3,0-.7-.3-.7-.7v-2.1c0-.3.3-.7.7-.7h2.6v-2.6c0-.3.3-.6.6-.6l3.9-.7h0c.3,0,.6.2.6.5v3.4h2.6c.3,0,.6.3.6.6v2.6c0,.3-.3.6-.6.6h-2.6v9.3c0,1.3.1,1.5,1,1.5h1.6c.4,0,.7.2.7.5v2.5c0,.3-.2.6-.6.6h0Z"/>
      <path class="st1" d="M513.8,89h-10.2c0,1.9.8,3.6,3.3,3.6s4.8-.2,6.1-.3h0c.3,0,.6.2.6.5v2.4c0,.5-.1.7-.7.9-2,.5-3.8.8-6.6.8s-8-2-8-8.2v-2.2c0-5.1,3-8.4,8.1-8.4s7.9,3.6,7.9,8.4v1.8c0,.5-.3.8-.7.8h0ZM509.4,85.6c0-2.4-1.1-3.5-2.9-3.5s-2.9,1.2-2.9,3.5h0c0,.1,5.8.1,5.8.1h0c0-.1,0-.1,0-.1Z"/>
      <path class="st1" d="M527.4,82.2h-.3c-1.6,0-2.9.5-4.1,1.1v12.5c0,.3-.3.7-.6.7h-3.9c-.3,0-.7-.3-.7-.7v-17c0-.3.3-.6.6-.6h3.8c.3,0,.6.3.6.6v.6c1.2-1,2.8-1.5,4.3-1.5s.6.3.6.6v3c0,.3-.2.6-.5.6Z"/>
      <path class="st1" d="M544.8,89h-10.2c0,1.9.8,3.6,3.3,3.6s4.8-.2,6.1-.3h.1c.3,0,.6.2.6.5v2.4c0,.5-.1.7-.7.9-2,.5-3.8.8-6.6.8s-8-2-8-8.2v-2.2c0-5.1,3-8.4,8.1-8.4s7.9,3.6,7.9,8.4v1.8c0,.5-.3.8-.7.8h0ZM540.4,85.6c0-2.4-1.1-3.5-2.9-3.5s-2.9,1.2-2.9,3.5h0c0,.1,5.8.1,5.8.1h0c0-.1,0-.1,0-.1Z"/>
      <path class="st1" d="M563,95.9c-1.8.5-4.3.8-6.8.8-5.2,0-8-3-8-8.2v-2.5c0-5,2.6-8.2,8-8.2s1.7,0,2.6.2v-5.5c0-.3.3-.6.6-.6h3.9c.3,0,.7.3.7.6v22.4c0,.5-.1.7-1,.9ZM558.9,82.4c-.8,0-1.8-.2-2.6-.2-2.3,0-2.8,1.7-2.8,3.9v2.5c0,2.3.6,3.9,2.8,3.9s2-.1,2.6-.2v-10Z"/>
      <path class="st1" d="M590.3,96.4c-1.1.2-2.8.4-6.2.4s-7.8-1-7.8-6.9v-10.6c0-5.8,3.7-6.8,7.8-6.8s5,.3,6.2.4c.5,0,.6.2.6.6v3c0,.3-.3.6-.6.6h-6.5c-1.5,0-2,.5-2,2.2v2.9h8.3c.3,0,.6.3.6.6v3c0,.3-.3.6-.6.6h-8.3v3.4c0,1.7.5,2.2,2,2.2h6.5c.3,0,.6.3.6.6v3c0,.4-.2.6-.6.7h0Z"/>
      <path class="st1" d="M609.7,96.5h-3.9c-.3,0-.6-.3-.6-.7v-10.6c0-2.2-.4-3-2.4-3s-1.9.5-3,1v12.6c0,.3-.3.7-.6.7h-3.9c-.3,0-.7-.3-.7-.7v-17c0-.3.3-.6.6-.6h3.6c.3,0,.6.3.6.6v.8c1.8-1.2,3.2-1.7,5.2-1.7,4.6,0,5.6,3.2,5.6,7.2v10.6c0,.3-.3.7-.7.7h0Z"/>
      <path class="st1" d="M630.1,81.5l-1,.3c.4.6.7,1.6.7,2.4v.3c0,4.1-2.9,6-7.9,6s-2.7-.2-3.3-.5c-.3.2-.5.5-.5.7,0,.5.2.7,1,.9l3.6.8c5.6,1.2,7.5,2.1,7.5,5.1v.3c0,3.5-2.8,5.2-8.4,5.2s-8.1-1.8-8.1-5.2v-.3c0-1.3.5-2.5,1.9-3.6-1.1-.6-1.6-1.9-1.6-3s.6-2.1,1.4-2.7c-1-.9-1.5-2.5-1.5-3.8v-.3c0-3.6,2.4-6,8-6h7.9c.5,0,.8.4.8.8v1.8c0,.5-.2.6-.6.7h0ZM625,97.5c0-.6-.4-1-3.3-1.7l-2.4-.5c-.4.5-.6,1-.6,2.2v.3c0,1.1.7,1.6,3.2,1.6s3.1-.7,3.1-1.6v-.3h0ZM624.8,84.2c0-1.3-.6-2.3-2.8-2.3s-2.9,1-2.9,2.3v.3c0,1.1.5,2.2,2.9,2.2s2.8-.9,2.8-2.2v-.3Z"/>
      <path class="st1" d="M638.1,76.1h-4.1c-.3,0-.6-.3-.6-.6v-3c0-.3.3-.6.6-.6h4.1c.3,0,.6.3.6.6v3c0,.3-.3.6-.6.6ZM638,96.5h-3.9c-.3,0-.6-.3-.6-.6v-17c0-.3.3-.6.6-.6h3.9c.3,0,.6.3.6.6v17c0,.3-.3.6-.6.6Z"/>
      <path class="st1" d="M657.6,96.5h-3.9c-.3,0-.6-.3-.6-.7v-10.6c0-2.2-.4-3-2.4-3s-1.9.5-3,1v12.6c0,.3-.3.7-.6.7h-3.9c-.3,0-.7-.3-.7-.7v-17c0-.3.3-.6.6-.6h3.6c.3,0,.6.3.6.6v.8c1.8-1.2,3.2-1.7,5.2-1.7,4.6,0,5.6,3.2,5.6,7.2v10.6c0,.3-.3.7-.7.7h0Z"/>
      <path class="st1" d="M676.9,89h-10.2c0,1.9.8,3.6,3.3,3.6s4.8-.2,6.1-.3h.1c.3,0,.6.2.6.5v2.4c0,.5-.1.7-.7.9-2,.5-3.8.8-6.6.8s-8-2-8-8.2v-2.2c0-5.1,3-8.4,8.1-8.4s7.9,3.6,7.9,8.4v1.8c0,.5-.3.8-.7.8h0ZM672.6,85.6c0-2.4-1.1-3.5-2.9-3.5s-2.9,1.2-2.9,3.5h0c0,.1,5.8.1,5.8.1h0c0-.1,0-.1,0-.1Z"/>
      <path class="st1" d="M695.8,89h-10.2c0,1.9.8,3.6,3.3,3.6s4.8-.2,6.1-.3h0c.3,0,.6.2.6.5v2.4c0,.5-.1.7-.7.9-2,.5-3.8.8-6.6.8s-8-2-8-8.2v-2.2c0-5.1,3-8.4,8.1-8.4s7.9,3.6,7.9,8.4v1.8c0,.5-.3.8-.7.8h0ZM691.4,85.6c0-2.4-1.1-3.5-2.9-3.5s-2.9,1.2-2.9,3.5h0c0,.1,5.8.1,5.8.1h0c0-.1,0-.1,0-.1Z"/>
      <path class="st1" d="M709.4,82.2h-.3c-1.6,0-2.9.5-4.1,1.1v12.5c0,.3-.3.7-.6.7h-3.9c-.3,0-.7-.3-.7-.7v-17c0-.3.3-.6.6-.6h3.8c.3,0,.6.3.6.6v.6c1.2-1,2.8-1.5,4.3-1.5s.6.3.6.6v3c0,.3-.2.6-.5.6h0Z"/>
      <path class="st1" d="M717.2,76.1h-4.1c-.3,0-.6-.3-.6-.6v-3c0-.3.3-.6.6-.6h4.1c.3,0,.6.3.6.6v3c0,.3-.3.6-.6.6ZM717.1,96.5h-3.9c-.3,0-.6-.3-.6-.6v-17c0-.3.3-.6.6-.6h3.9c.3,0,.6.3.6.6v17c0,.3-.3.6-.6.6Z"/>
      <path class="st1" d="M736.8,96.5h-3.9c-.3,0-.6-.3-.6-.7v-10.6c0-2.2-.4-3-2.4-3s-1.9.5-3,1v12.6c0,.3-.3.7-.6.7h-3.9c-.3,0-.7-.3-.7-.7v-17c0-.3.3-.6.6-.6h3.6c.3,0,.6.3.6.6v.8c1.8-1.2,3.2-1.7,5.2-1.7,4.6,0,5.6,3.2,5.6,7.2v10.6c0,.3-.3.7-.7.7h0Z"/>
      <path class="st1" d="M757.2,81.5l-1,.3c.4.6.7,1.6.7,2.4v.3c0,4.1-2.9,6-7.9,6s-2.7-.2-3.3-.5c-.3.2-.5.5-.5.7,0,.5.2.7,1,.9l3.6.8c5.6,1.2,7.5,2.1,7.5,5.1v.3c0,3.5-2.8,5.2-8.4,5.2s-8.1-1.8-8.1-5.2v-.3c0-1.3.5-2.5,1.9-3.6-1.2-.6-1.6-1.9-1.6-3s.6-2.1,1.4-2.7c-1-.9-1.5-2.5-1.5-3.8v-.3c0-3.6,2.4-6,8-6h7.9c.5,0,.8.4.8.8v1.8c0,.5-.2.6-.6.7h0ZM752,97.5c0-.6-.4-1-3.3-1.7l-2.4-.5c-.4.5-.6,1-.6,2.2v.3c0,1.1.7,1.6,3.2,1.6s3.1-.7,3.1-1.6v-.3h0ZM751.9,84.2c0-1.3-.6-2.3-2.8-2.3s-2.9,1-2.9,2.3v.3c0,1.1.5,2.2,2.9,2.2s2.8-.9,2.8-2.2v-.3Z"/>
      <path class="st1" d="M310.7,64.4v15.6h38.5v-15.6h-38.5ZM338,1.2h-17.6l-20.9,95.3h17.4l13.2-72.1h-1.9l13.2,72.1h17.4L338,1.2ZM382,40.1V15.9h5.8c5,0,7.3,3.7,7.3,10.8s-2,13.3-6.6,13.3h-6.6ZM382,82.2v-26h5.8c7,0,9.7,3.7,9.7,13.3s-2.5,12.6-8.9,12.6h-6.6ZM389.2,1.2h-23.1v95.3h26.2c16.1,0,21.6-9.3,21.6-28.1s-6.4-21.1-24-23.3v4.4c18.1-3.1,21.6-9.1,21.6-23.9s-6.5-24.3-22.3-24.3h0ZM271.9,1.2h-17.6v95.3h38.5v-15.6h-20.9V1.2Z"/>
      <path class="st1" d="M0,1.2v95.4h43.2v-14.4h-25.5v-27.1h20.8v-14.4h-20.8c0,.1,0-25,0-25h25V1.2H0ZM113.6,1.2v95.4h17.7v-41.8h20.7v41.8h17.7V1.2h-17.7v39.2h-20.7V1.2h-17.7ZM76.9,97.7c15.4,0,25.8-10.5,25.8-26v-3.9h-16.1v3c0,7.7-4.1,12.5-9.8,12.5s-10.5-5-10.5-13.2V26.6c0-7.5,4-12.1,10.5-12.1s9.8,4.4,9.8,11.3v9.5h16.3v-10.3C103.2,10.1,92.3,0,76.8,0s-26.3,11.9-26.3,27.1v43.4c0,15.4,10.9,27.1,26.5,27.1h0Z"/>
      <path class="st1" d="M194.7,39.7c-5.2-2.9-9.7-7-12.4-9.1-1.7,5.2-1.9,10.4-.9,15.1,2.4,11.6,12.3,20.1,26.3,17.2,15.9-3.3,25.1-22.9,22-42.7-2.3-14.8-13.1-22.4-25.7-19.7-10.7,2.2-17.8,12.1-15.7,22.1,1.9,9.2,12.3,15.2,23.8,12.8,16.2-3.4,24.1-9.5,33.4-26.2l-9.7-5.7c-6.1,12.7-13,18.6-24.4,21-5.4,1.1-10.1-.6-11.1-5.2-1-4.9,1.7-7.8,4.9-8.5,3.5-.7,8.1.9,9.3,9.4,2.8,19.6-.5,28.1-8.7,29.8-7,1.4-11.2-4.4-11.2-10.4h0Z"/>
      <path class="st1" d="M207.1,96.6c6.2,0,11.2-5,11.2-11.2s-5-11.2-11.2-11.2-11.2,5-11.2,11.2,5,11.2,11.2,11.2Z"/>
    </g>
  </g>
</svg>